# Blender v2.79 (sub 0) OBJ File: ''
# www.blender.org
mtllib Cylinder.mtl
o Cylinder
v 0.000000 -1.000000 -1.000000
v 0.000000 1.000000 -1.000000
v 0.195090 -1.000000 -0.980785
v 0.195090 1.000000 -0.980785
v 0.382683 -1.000000 -0.923880
v 0.382683 1.000000 -0.923880
v 0.555570 -1.000000 -0.831470
v 0.555570 1.000000 -0.831470
v 0.707107 -1.000000 -0.707107
v 0.707107 1.000000 -0.707107
v 0.831470 -1.000000 -0.555570
v 0.831470 1.000000 -0.555570
v 0.923880 -1.000000 -0.382683
v 0.923880 1.000000 -0.382683
v 0.980785 -1.000000 -0.195090
v 0.980785 1.000000 -0.195090
v 1.000000 -1.000000 -0.000000
v 1.000000 1.000000 -0.000000
v 0.980785 -1.000000 0.195090
v 0.980785 1.000000 0.195090
v 0.923880 -1.000000 0.382683
v 0.923880 1.000000 0.382683
v 0.831470 -1.000000 0.555570
v 0.831470 1.000000 0.555570
v 0.707107 -1.000000 0.707107
v 0.707107 1.000000 0.707107
v 0.555570 -1.000000 0.831470
v 0.555570 1.000000 0.831470
v 0.382683 -1.000000 0.923880
v 0.382683 1.000000 0.923880
v 0.195090 -1.000000 0.980785
v 0.195090 1.000000 0.980785
v -0.000000 -1.000000 1.000000
v -0.000000 1.000000 1.000000
v -0.195091 -1.000000 0.980785
v -0.195091 1.000000 0.980785
v -0.382684 -1.000000 0.923879
v -0.382684 1.000000 0.923879
v -0.555571 -1.000000 0.831469
v -0.555571 1.000000 0.831469
v -0.707107 -1.000000 0.707106
v -0.707107 1.000000 0.707106
v -0.831470 -1.000000 0.555570
v -0.831470 1.000000 0.555570
v -0.923880 -1.000000 0.382683
v -0.923880 1.000000 0.382683
v -0.980785 -1.000000 0.195089
v -0.980785 1.000000 0.195089
v -1.000000 -1.000000 -0.000001
v -1.000000 1.000000 -0.000001
v -0.980785 -1.000000 -0.195091
v -0.980785 1.000000 -0.195091
v -0.923879 -1.000000 -0.382684
v -0.923879 1.000000 -0.382684
v -0.831469 -1.000000 -0.555571
v -0.831469 1.000000 -0.555571
v -0.707106 -1.000000 -0.707108
v -0.707106 1.000000 -0.707108
v -0.555569 -1.000000 -0.831470
v -0.555569 1.000000 -0.831470
v -0.382682 -1.000000 -0.923880
v -0.382682 1.000000 -0.923880
v -0.195089 -1.000000 -0.980786
v -0.195089 1.000000 -0.980786
vt 0.595482 0.334407
vt 0.554685 0.000000
vt 0.595482 0.000000
vt 0.554686 0.334407
vt 0.514673 0.000000
vt 0.514673 0.334407
vt 0.476982 0.000000
vt 0.476982 0.334407
vt 0.443061 0.000000
vt 0.443061 0.334407
vt 0.414213 0.000000
vt 0.264046 1.000000
vt 0.230125 0.665593
vt 0.264046 0.665593
vt 0.230125 1.000000
vt 0.192434 0.665593
vt 0.192434 1.000000
vt 0.152421 0.665593
vt 0.152421 1.000000
vt 0.111625 0.665593
vt 0.111625 1.000000
vt 0.071612 0.665593
vt 0.071612 1.000000
vt 0.033921 0.665593
vt 0.033921 1.000000
vt 0.000000 0.665593
vt 0.414213 0.334407
vt 0.448134 0.668814
vt 0.414213 0.668814
vt 0.448134 0.334407
vt 0.485826 0.668814
vt 0.485825 0.334407
vt 0.525838 0.668814
vt 0.525838 0.334407
vt 0.566635 0.668814
vt 0.566635 0.334407
vt 0.606647 0.668814
vt 0.606647 0.334407
vt 0.644338 0.668814
vt 0.644338 0.334407
vt 0.678259 0.668814
vt 0.678259 0.334407
vt 0.707107 0.668814
vt 0.707107 0.334407
vt 0.741028 0.668814
vt 0.741028 0.334407
vt 0.778719 0.668814
vt 0.778719 0.334407
vt 0.818731 0.668814
vt 0.818731 0.334407
vt 0.859528 0.668814
vt 0.859528 0.334407
vt 0.899540 0.668814
vt 0.899540 0.334407
vt 0.937231 0.668814
vt 0.937231 0.334407
vt 0.971153 0.668814
vt 0.971152 0.334407
vt 1.000000 0.668814
vt 0.735954 0.334407
vt 0.707106 0.000000
vt 0.735954 0.000000
vt 0.707106 0.334407
vt 0.673185 0.000000
vt 0.339130 0.369945
vt 0.414213 0.482806
vt 0.227505 0.665593
vt 0.673185 0.334407
vt 0.635494 0.000000
vt 0.635494 0.334407
vt 0.406254 0.117862
vt 0.267517 0.326402
vt 0.146696 0.006395
vt 0.414213 0.334407
vt 0.000000 1.000000
vt 1.000000 0.334407
vt 0.186708 0.665593
vt 0.146696 0.659199
vt 0.109005 0.646655
vt 0.075084 0.628445
vt 0.046237 0.605268
vt 0.023571 0.578014
vt 0.007959 0.547732
vt 0.000000 0.515584
vt 0.000000 0.482806
vt 0.007959 0.450658
vt 0.023571 0.420376
vt 0.046236 0.393122
vt 0.075084 0.369945
vt 0.186708 0.332797
vt 0.109005 0.351735
vt 0.146696 0.339191
vt 0.227505 0.332797
vt 0.267517 0.339191
vt 0.305209 0.351735
vt 0.367977 0.393122
vt 0.390642 0.420376
vt 0.406254 0.450658
vt 0.414213 0.515584
vt 0.406254 0.547731
vt 0.390642 0.578014
vt 0.367977 0.605268
vt 0.339130 0.628445
vt 0.305209 0.646655
vt 0.267518 0.659199
vt 0.007959 0.214935
vt 0.000000 0.182787
vt 0.000000 0.150010
vt 0.007959 0.117862
vt 0.023571 0.087579
vt 0.046236 0.060326
vt 0.075084 0.037148
vt 0.109005 0.018938
vt 0.186708 0.000000
vt 0.227505 0.000000
vt 0.267517 0.006395
vt 0.305208 0.018938
vt 0.339129 0.037148
vt 0.367977 0.060326
vt 0.390642 0.087579
vt 0.414213 0.150009
vt 0.414213 0.182787
vt 0.406254 0.214935
vt 0.390642 0.245217
vt 0.367977 0.272471
vt 0.339129 0.295648
vt 0.305208 0.313859
vt 0.227505 0.332797
vt 0.186708 0.332797
vt 0.146696 0.326402
vt 0.109005 0.313858
vt 0.075084 0.295648
vt 0.046236 0.272471
vt 0.023571 0.245217
vn 0.0980 0.0000 -0.9952
vn 0.2903 0.0000 -0.9569
vn 0.4714 0.0000 -0.8819
vn 0.6344 0.0000 -0.7730
vn 0.7730 0.0000 -0.6344
vn 0.8819 0.0000 -0.4714
vn 0.9569 0.0000 -0.2903
vn 0.9952 0.0000 -0.0980
vn 0.9952 0.0000 0.0980
vn 0.9569 0.0000 0.2903
vn 0.8819 0.0000 0.4714
vn 0.7730 0.0000 0.6344
vn 0.6344 0.0000 0.7730
vn 0.4714 0.0000 0.8819
vn 0.2903 0.0000 0.9569
vn 0.0980 0.0000 0.9952
vn -0.0980 0.0000 0.9952
vn -0.2903 0.0000 0.9569
vn -0.4714 0.0000 0.8819
vn -0.6344 0.0000 0.7730
vn -0.7730 0.0000 0.6344
vn -0.8819 0.0000 0.4714
vn -0.9569 0.0000 0.2903
vn -0.9952 0.0000 0.0980
vn -0.9952 0.0000 -0.0980
vn -0.9569 0.0000 -0.2903
vn -0.8819 0.0000 -0.4714
vn -0.7730 0.0000 -0.6344
vn -0.6344 0.0000 -0.7730
vn -0.4714 0.0000 -0.8819
vn 0.0000 1.0000 0.0000
vn -0.2903 0.0000 -0.9569
vn -0.0980 0.0000 -0.9952
vn 0.0000 -1.0000 0.0000
usemtl None
s off
f 2/1/1 3/2/1 1/3/1
f 4/4/2 5/5/2 3/2/2
f 6/6/3 7/7/3 5/5/3
f 8/8/4 9/9/4 7/7/4
f 10/10/5 11/11/5 9/9/5
f 12/12/6 13/13/6 11/14/6
f 14/15/7 15/16/7 13/13/7
f 16/17/8 17/18/8 15/16/8
f 18/19/9 19/20/9 17/18/9
f 20/21/10 21/22/10 19/20/10
f 22/23/11 23/24/11 21/22/11
f 24/25/12 25/26/12 23/24/12
f 26/27/13 27/28/13 25/29/13
f 28/30/14 29/31/14 27/28/14
f 30/32/15 31/33/15 29/31/15
f 32/34/16 33/35/16 31/33/16
f 34/36/17 35/37/17 33/35/17
f 36/38/18 37/39/18 35/37/18
f 38/40/19 39/41/19 37/39/19
f 40/42/20 41/43/20 39/41/20
f 42/44/21 43/45/21 41/43/21
f 44/46/22 45/47/22 43/45/22
f 46/48/23 47/49/23 45/47/23
f 48/50/24 49/51/24 47/49/24
f 50/52/25 51/53/25 49/51/25
f 52/54/26 53/55/26 51/53/26
f 54/56/27 55/57/27 53/55/27
f 56/58/28 57/59/28 55/57/28
f 58/60/29 59/61/29 57/62/29
f 60/63/30 61/64/30 59/61/30
f 30/65/31 22/66/31 6/67/31
f 62/68/32 63/69/32 61/64/32
f 64/70/33 1/3/33 63/69/33
f 31/71/34 47/72/34 15/73/34
f 2/1/1 4/4/1 3/2/1
f 4/4/2 6/6/2 5/5/2
f 6/6/3 8/8/3 7/7/3
f 8/8/4 10/10/4 9/9/4
f 10/10/5 12/74/5 11/11/5
f 12/12/6 14/15/6 13/13/6
f 14/15/7 16/17/7 15/16/7
f 16/17/8 18/19/8 17/18/8
f 18/19/9 20/21/9 19/20/9
f 20/21/10 22/23/10 21/22/10
f 22/23/11 24/25/11 23/24/11
f 24/25/12 26/75/12 25/26/12
f 26/27/13 28/30/13 27/28/13
f 28/30/14 30/32/14 29/31/14
f 30/32/15 32/34/15 31/33/15
f 32/34/16 34/36/16 33/35/16
f 34/36/17 36/38/17 35/37/17
f 36/38/18 38/40/18 37/39/18
f 38/40/19 40/42/19 39/41/19
f 40/42/20 42/44/20 41/43/20
f 42/44/21 44/46/21 43/45/21
f 44/46/22 46/48/22 45/47/22
f 46/48/23 48/50/23 47/49/23
f 48/50/24 50/52/24 49/51/24
f 50/52/25 52/54/25 51/53/25
f 52/54/26 54/56/26 53/55/26
f 54/56/27 56/58/27 55/57/27
f 56/58/28 58/76/28 57/59/28
f 58/60/29 60/63/29 59/61/29
f 60/63/30 62/68/30 61/64/30
f 6/67/31 4/77/31 2/78/31
f 2/78/31 64/79/31 6/67/31
f 62/80/31 60/81/31 58/82/31
f 58/82/31 56/83/31 54/84/31
f 54/84/31 52/85/31 50/86/31
f 50/86/31 48/87/31 54/84/31
f 46/88/31 44/89/31 38/90/31
f 42/91/31 40/92/31 38/90/31
f 38/90/31 36/93/31 34/94/31
f 34/94/31 32/95/31 38/90/31
f 30/65/31 28/96/31 26/97/31
f 26/97/31 24/98/31 22/66/31
f 22/66/31 20/99/31 18/100/31
f 18/100/31 16/101/31 14/102/31
f 14/102/31 12/103/31 10/104/31
f 10/104/31 8/105/31 6/67/31
f 6/67/31 64/79/31 62/80/31
f 62/80/31 58/82/31 6/67/31
f 54/84/31 48/87/31 46/88/31
f 44/89/31 42/91/31 38/90/31
f 38/90/31 32/95/31 30/65/31
f 30/65/31 26/97/31 22/66/31
f 22/66/31 18/100/31 14/102/31
f 14/102/31 10/104/31 22/66/31
f 6/67/31 58/82/31 54/84/31
f 54/84/31 46/88/31 38/90/31
f 38/90/31 30/65/31 6/67/31
f 22/66/31 10/104/31 6/67/31
f 6/67/31 54/84/31 38/90/31
f 62/68/32 64/70/32 63/69/32
f 64/70/33 2/1/33 1/3/33
f 63/106/34 1/107/34 3/108/34
f 3/108/34 5/109/34 7/110/34
f 7/110/34 9/111/34 11/112/34
f 11/112/34 13/113/34 7/110/34
f 15/73/34 17/114/34 19/115/34
f 19/115/34 21/116/34 15/73/34
f 23/117/34 25/118/34 31/71/34
f 27/119/34 29/120/34 31/71/34
f 31/71/34 33/121/34 35/122/34
f 35/122/34 37/123/34 31/71/34
f 39/124/34 41/125/34 43/126/34
f 43/126/34 45/127/34 47/72/34
f 47/72/34 49/128/34 51/129/34
f 51/129/34 53/130/34 55/131/34
f 55/131/34 57/132/34 63/106/34
f 59/133/34 61/134/34 63/106/34
f 63/106/34 3/108/34 15/73/34
f 7/110/34 13/113/34 15/73/34
f 15/73/34 21/116/34 23/117/34
f 25/118/34 27/119/34 31/71/34
f 31/71/34 37/123/34 39/124/34
f 39/124/34 43/126/34 47/72/34
f 47/72/34 51/129/34 63/106/34
f 57/132/34 59/133/34 63/106/34
f 3/108/34 7/110/34 15/73/34
f 15/73/34 23/117/34 31/71/34
f 31/71/34 39/124/34 47/72/34
f 51/129/34 55/131/34 63/106/34
f 63/106/34 15/73/34 47/72/34
